<svg width="232" height="84" viewBox="0 0 232 84" fill="none" xmlns="http://www.w3.org/2000/svg">
<path d="M91.8017 55.9275C87.6834 55.9275 84.3326 59.1845 84.3326 63.1881C84.3326 67.1916 87.6832 70.4488 91.8017 70.4488C95.92 70.4488 99.2708 67.1918 99.2708 63.1881C99.2708 59.1845 95.9202 55.9275 91.8017 55.9275ZM91.8017 67.0309C89.6218 67.0309 87.8483 65.3069 87.8483 63.1878C87.8483 61.0687 89.6218 59.3446 91.8017 59.3446C93.9816 59.3446 95.7552 61.0687 95.7552 63.1878C95.7552 65.3069 93.9816 67.0309 91.8017 67.0309Z" fill="black"/>
<path d="M25.7049 55.9275C21.5866 55.9275 18.2358 59.1845 18.2358 63.1881C18.2358 67.1916 21.5864 70.4488 25.7049 70.4488C29.8234 70.4488 33.174 67.1918 33.174 63.1881C33.174 59.1845 29.8234 55.9275 25.7049 55.9275ZM25.7049 67.0309C23.525 67.0309 21.7515 65.3069 21.7515 63.1878C21.7515 61.0687 23.525 59.3446 25.7049 59.3446C27.8848 59.3446 29.6584 61.0687 29.6584 63.1878C29.6584 65.3069 27.8846 67.0309 25.7049 67.0309Z" fill="black"/>
<path d="M119.228 23.7918C118.995 23.0843 118.318 22.6041 117.554 22.6041H111.722L110.907 19.9039V19.9037L110.341 18.027C110.329 17.9867 110.315 17.9467 110.3 17.9072C108.934 14.3739 105.409 12 101.526 12H6.51534C4.02565 12.0004 2 13.9693 2 16.3895V60.5073C2 62.9275 4.02565 64.8966 6.51534 64.8966H12.6455C13.508 71.1559 19.0338 76 25.7047 76C32.3755 76 37.9016 71.1559 38.7639 64.8966H78.7422C79.6046 71.1559 85.1305 76 91.8013 76C98.4722 76 103.998 71.1559 104.861 64.8966H113.647C116.136 64.8966 118.162 62.9275 118.162 60.5073V48.8645V48.6997C118.162 44.4609 117.388 40.2988 115.863 36.3276L112.752 26.0216H116.27L118.566 32.994C118.805 33.7195 119.496 34.1821 120.24 34.1821C121.433 34.1821 122.277 33.0517 121.915 31.9519L119.228 23.7918ZM114.608 47.1558H104.988C104.249 47.1558 103.525 46.9084 102.95 46.4586C100.21 44.3199 97.0377 41.8433 94.278 39.6888C93.9166 39.4067 93.5248 39.168 93.115 38.9649V22.0934H107.904C108.321 23.4736 111.958 35.5252 112.508 37.3495C112.721 38.0624 114.334 41.6812 114.608 47.1558ZM70.9243 38.2384V34.2399C70.9243 33.2962 70.1375 32.5312 69.1666 32.5312C68.1955 32.5312 67.4089 33.2962 67.4089 34.2399V38.2384H64.2649V22.0934H67.4089V26.2657C67.4089 27.2093 68.1957 27.9744 69.1666 27.9744C70.1377 27.9744 70.9243 27.2093 70.9243 26.2657V22.0934H82.9394V38.2384H70.9243ZM48.734 38.2384V22.0934H60.7491V38.2384H48.734ZM26.5435 38.2384V22.0934H38.5586V38.2384H26.5435ZM5.51562 38.2384V22.0934H16.3682V38.2384H5.51562ZM19.8839 22.0936H23.0279V38.2386H19.8839V22.0936ZM42.074 22.0936H45.2184V38.2386H42.074V22.0936ZM86.455 22.0936H89.5994V38.2386H86.455V22.0936ZM5.51562 16.3895C5.51562 15.8628 5.97326 15.4175 6.51554 15.4175H101.526C103.789 15.4175 105.87 16.7266 106.819 18.6759C100.086 18.6759 9.45346 18.6759 5.51602 18.6759V16.3893H5.51562V16.3895ZM25.7049 72.5827C20.3759 72.5827 16.0405 68.3682 16.0405 63.1879C16.0405 58.0077 20.3759 53.7932 25.7049 53.7932C31.0338 53.7932 35.3693 58.0077 35.3693 63.1879C35.3693 68.3682 31.0338 72.5827 25.7049 72.5827ZM91.8018 72.5827C86.4728 72.5827 82.1373 68.3682 82.1373 63.1879C82.1373 58.0077 86.4728 53.7932 91.8018 53.7932C97.1307 53.7932 101.466 58.0077 101.466 63.1879C101.466 68.3682 97.1309 72.5827 91.8018 72.5827ZM113.647 61.4791H104.865C103.996 55.163 98.4068 50.3757 91.802 50.3757C85.0893 50.3757 79.5922 55.2718 78.7388 61.4791H38.7683C37.9106 55.2424 32.3837 50.3757 25.7051 50.3757C19.0356 50.3757 13.5014 55.229 12.6419 61.4791H6.51534C5.97326 61.4791 5.51542 61.0338 5.51542 60.5071V48.2544H53.8921C54.8632 48.2544 55.6498 47.4894 55.6498 46.5458C55.6498 45.6022 54.863 44.8371 53.8921 44.8371H5.51562V41.6559H90.038C90.7414 41.6559 91.4832 41.8899 92.0767 42.3533L95.2583 44.8371H62.0954C61.1243 44.8371 60.3376 45.6022 60.3376 46.5458C60.3376 47.4894 61.1245 48.2544 62.0954 48.2544H99.6356L100.748 49.123C101.946 50.058 103.452 50.5731 104.988 50.5731H114.647V60.5071C114.647 61.034 114.189 61.4791 113.647 61.4791Z" fill="black"/>
<line y1="83" x2="40" y2="83" stroke="black" stroke-width="2"/>
<line x1="48" y1="83" x2="88" y2="83" stroke="black" stroke-width="2"/>
<line x1="96" y1="83" x2="136" y2="83" stroke="black" stroke-width="2"/>
<line x1="144" y1="83" x2="184" y2="83" stroke="black" stroke-width="2"/>
<line x1="192" y1="83" x2="232" y2="83" stroke="black" stroke-width="2"/>
<path d="M225 20.4255H227.5V47.2339H225V20.4255Z" fill="black"/>
<path d="M172.5 20.4255H175V47.2339H172.5V20.4255Z" fill="black"/>
<path d="M228.75 21.7023H171.25C170.56 21.7023 170 21.1305 170 20.4255V12.766C170 12.061 170.56 11.4893 171.25 11.4893H228.75C229.44 11.4893 230 12.061 230 12.766V20.4255C230 21.1305 229.44 21.7023 228.75 21.7023ZM172.5 19.1488H227.5V14.0427H172.5V19.1488Z" fill="black"/>
<path d="M190 7.65952V5.1065C190.326 5.10931 190.638 4.97747 190.866 4.73998C191.112 4.50389 191.251 4.17431 191.25 3.82976C191.25 3.12477 190.69 2.55348 190 2.55348H186.25V6.38324H183.75V1.27674C183.75 0.571752 184.31 0 185 0H190C192.071 0 193.75 1.71479 193.75 3.82976C193.756 4.85265 193.352 5.833 192.634 6.545C191.94 7.26542 190.989 7.66747 190 7.65952Z" fill="black"/>
<path d="M190 12.766H185C184.31 12.766 183.75 12.1942 183.75 11.4892V6.38319C183.75 5.67773 184.31 5.10645 185 5.10645H190C192.071 5.10645 193.75 6.82123 193.75 8.9362C193.741 11.0474 192.067 12.7561 190 12.766ZM186.25 10.2129H190C190.326 10.2158 190.638 10.0834 190.866 9.84643C191.112 9.61034 191.251 9.28075 191.25 8.9362C191.25 8.23121 190.69 7.65946 190 7.65946H186.25V10.2129Z" fill="black"/>
<path d="M212.5 12.7659H206.25V10.2129H212.5C213.19 10.2129 213.75 9.64112 213.75 8.93613C213.753 8.60374 213.623 8.28444 213.391 8.05162C213.16 7.80058 212.837 7.65892 212.5 7.65939H210C207.929 7.65939 206.25 5.94507 206.25 3.82963C206.244 2.80721 206.648 1.82639 207.366 1.11439C208.06 0.393974 209.011 -0.00807601 210 -0.000128515H216.25V2.55336H210C209.674 2.55008 209.362 2.68239 209.134 2.91941C208.888 3.15596 208.749 3.48508 208.75 3.82963C208.75 4.53462 209.31 5.10637 210 5.10637H212.5C214.567 5.11619 216.241 6.8249 216.25 8.93613C216.25 11.0511 214.571 12.7659 212.5 12.7659Z" fill="black"/>
<path d="M201.25 12.766H198.75C196.679 12.766 195 11.0512 195 8.93626V0H197.5V8.93626C197.5 9.64125 198.06 10.213 198.75 10.213H201.25C201.94 10.213 202.5 9.64125 202.5 8.93626V0H205V8.93626C205 11.0512 203.321 12.766 201.25 12.766Z" fill="black"/>
<path d="M230 51.0635H227.5V48.5105H172.5V51.0635H170V47.2338C170 46.5288 170.56 45.957 171.25 45.957H228.75C229.44 45.957 230 46.5288 230 47.2338V51.0635Z" fill="black"/>
<path d="M175 49.7869H187.5V52.3404H175V49.7869Z" fill="black"/>
<path d="M191.25 49.7869H208.75V52.3404H191.25V49.7869Z" fill="black"/>
<path d="M212.5 49.7869H225V52.3404H212.5V49.7869Z" fill="black"/>
<path d="M175 59.9999H171.25C170.56 59.9999 170 59.4281 170 58.7231V51.0636C170 50.3586 170.56 49.7869 171.25 49.7869H175C175.69 49.7869 176.25 50.3586 176.25 51.0636V58.7231C176.25 59.4281 175.69 59.9999 175 59.9999ZM172.5 57.4464H173.75V52.3404H172.5V57.4464Z" fill="black"/>
<path d="M228.75 59.9999H225C224.31 59.9999 223.75 59.4281 223.75 58.7231V51.0636C223.75 50.3586 224.31 49.7869 225 49.7869H228.75C229.44 49.7869 230 50.3586 230 51.0636V58.7231C230 59.4281 229.44 59.9999 228.75 59.9999ZM226.25 57.4464H227.5V52.3404H226.25V57.4464Z" fill="black"/>
<path d="M212.5 59.9999H208.75C208.06 59.9999 207.5 59.4281 207.5 58.7231V51.0636C207.5 50.3586 208.06 49.7869 208.75 49.7869H212.5C213.19 49.7869 213.75 50.3586 213.75 51.0636V58.7231C213.75 59.4281 213.19 59.9999 212.5 59.9999ZM210 57.4464H211.25V52.3404H210V57.4464Z" fill="black"/>
<path d="M191.25 59.9999H187.5C186.81 59.9999 186.25 59.4281 186.25 58.7231V51.0636C186.25 50.3586 186.81 49.7869 187.5 49.7869H191.25C191.94 49.7869 192.5 50.3586 192.5 51.0636V58.7231C192.5 59.4281 191.94 59.9999 191.25 59.9999ZM188.75 57.4464H190V52.3404H188.75V57.4464Z" fill="black"/>
</svg>
