<svg width="24" height="24" viewBox="0 0 24 24" fill="none" xmlns="http://www.w3.org/2000/svg">
<path d="M23.5308 4.8266L12.2339 0.048049C12.0826 -0.0160163 11.9174 -0.0160163 11.7661 0.048049L0.469219 4.8266C0.188344 4.9454 0.000375562 5.26348 5.61892e-07 5.62056C-0.000374438 5.97764 0.186985 6.29622 0.467625 6.41581L11.7645 11.2307C11.8407 11.2631 11.9204 11.2794 12 11.2794C12.0797 11.2794 12.1593 11.2631 12.2355 11.2307L23.5324 6.41581C23.813 6.29622 24.0003 5.97764 24 5.62056C23.9996 5.26348 23.8116 4.9454 23.5308 4.8266Z" fill="black"/>
<path d="M22.3113 16.0785V8.72559L20.905 9.32493V16.0785C20.4815 16.3708 20.196 16.9184 20.196 17.5464C20.196 18.1744 20.4815 18.7221 20.905 19.0144V23.157C20.905 23.6226 21.2198 24 21.6082 24C21.9965 24 22.3113 23.6226 22.3113 23.157V19.0144C22.7348 18.7222 23.0203 18.1744 23.0203 17.5465C23.0203 16.9185 22.7349 16.3708 22.3113 16.0785Z" fill="black"/>
<path d="M12.0001 12.9653C11.7587 12.9653 11.521 12.9161 11.2935 12.8192L4.94275 10.1124V13.8219C4.94275 14.7295 5.73245 15.497 7.28992 16.103C8.64747 16.6312 10.3202 16.9222 12.0001 16.9222C13.6799 16.9222 15.3526 16.6312 16.7102 16.103C18.2677 15.497 19.0574 14.7295 19.0574 13.8219V10.1124L12.7067 12.8192C12.4791 12.9161 12.2414 12.9653 12.0001 12.9653Z" fill="black"/>
</svg>
