<svg width="40" height="40" viewBox="0 0 40 40" fill="none" xmlns="http://www.w3.org/2000/svg">
<path d="M3.79182 39.9793C2.81113 40.037 1.84666 39.7072 1.10178 39.0594C-0.36726 37.5644 -0.36726 35.1499 1.10178 33.655L33.2689 1.11339C34.7969 -0.332979 37.1944 -0.252576 38.6242 1.29313C39.917 2.69091 39.9924 4.83933 38.8006 6.32622L6.44392 39.0594C5.70865 39.6978 4.75965 40.027 3.79182 39.9793Z" fill="black"/>
<path d="M35.9212 39.9793C34.9273 39.975 33.9747 39.5759 33.269 38.8678L1.10172 6.3261C-0.259271 4.71829 -0.0742377 2.29862 1.51508 0.92167C2.93359 -0.307223 5.0256 -0.307223 6.44399 0.92167L38.8007 33.4632C40.3282 34.91 40.4072 37.3356 38.9771 38.8809C38.9202 38.9424 38.8614 39.0018 38.8007 39.0594C38.0084 39.7564 36.9657 40.0895 35.9212 39.9793Z" fill="black"/>
</svg>
