<svg width="21" height="21" viewBox="0 0 21 21" fill="none" xmlns="http://www.w3.org/2000/svg">
<path d="M2.24624 2.35683C0.679093 3.98464 0.999836 5.71383 0.999836 10.967C0.999836 15.3295 0.238695 19.7027 4.22222 20.7322C5.46613 21.0522 16.4877 21.0522 17.73 20.7306C19.3885 20.3026 20.738 18.9574 20.9224 16.6116C20.9482 16.2842 20.9482 5.65566 20.9216 5.32163C20.7255 2.82299 19.1874 1.38297 17.1608 1.09131C16.6963 1.024 16.6032 1.00406 14.2201 0.999906C5.76693 1.00406 3.91394 0.627645 2.24624 2.35683V2.35683Z" fill="url(#paint0_linear_226_8)"/>
<path d="M10.9695 3.60824C7.95232 3.60824 5.08724 3.33985 3.99289 6.14843C3.54086 7.30842 3.60651 8.81491 3.60651 10.972C3.60651 12.8649 3.54585 14.644 3.99289 15.7948C5.08475 18.6051 7.97309 18.3358 10.9678 18.3358C13.857 18.3358 16.8359 18.6366 17.9435 15.7948C18.3964 14.6232 18.3299 13.1391 18.3299 10.972C18.3299 8.09532 18.4886 6.23817 17.0935 4.84385C15.6809 3.43125 13.7706 3.60824 10.9661 3.60824H10.9695ZM10.3097 4.93525C16.6032 4.92528 17.4043 4.22563 16.9622 13.9451C16.8052 17.3827 14.1877 17.0055 10.9703 17.0055C5.10386 17.0055 4.93518 16.8376 4.93518 10.9687C4.93518 5.03164 5.4005 4.93858 10.3097 4.93359V4.93525ZM14.8998 6.15757C14.412 6.15757 14.0165 6.55309 14.0165 7.04086C14.0165 7.52862 14.412 7.92415 14.8998 7.92415C15.3876 7.92415 15.7831 7.52862 15.7831 7.04086C15.7831 6.55309 15.3876 6.15757 14.8998 6.15757V6.15757ZM10.9695 7.19042C8.88131 7.19042 7.18869 8.88388 7.18869 10.972C7.18869 13.0602 8.88131 14.7528 10.9695 14.7528C13.0576 14.7528 14.7494 13.0602 14.7494 10.972C14.7494 8.88388 13.0576 7.19042 10.9695 7.19042V7.19042ZM10.9695 8.51744C14.2143 8.51744 14.2184 13.4266 10.9695 13.4266C7.72547 13.4266 7.72049 8.51744 10.9695 8.51744Z" fill="white"/>
<defs>
<linearGradient id="paint0_linear_226_8" x1="2.28448" y1="19.6687" x2="20.819" y2="3.62734" gradientUnits="userSpaceOnUse">
<stop stop-color="#FFDD55"/>
<stop offset="0.5" stop-color="#FF543E"/>
<stop offset="1" stop-color="#C837AB"/>
</linearGradient>
</defs>
</svg>
