<svg width="24" height="25" viewBox="0 0 24 25" fill="none" xmlns="http://www.w3.org/2000/svg">
<path d="M10.9403 19.3553L10.2164 20.3456L10.7803 21.3755L11.0698 19.5423L10.9403 19.3553Z" fill="black"/>
<path d="M13.0647 19.3621L12.9398 19.5423L13.2273 21.3613L13.7836 20.3454L13.0647 19.3621Z" fill="black"/>
<path d="M15.1476 15.5977L13.1916 16.9099L12.5698 17.3271L13.3392 18.3796L13.3786 18.4335L14.2089 19.5692L16.1802 15.9696L15.1476 15.5977Z" fill="black"/>
<path d="M12.1243 19.5085C12.1081 19.4057 12.1321 19.301 12.1913 19.2159L12.5644 18.678L12.0221 17.9356L12.0016 17.9076L11.441 18.6715L11.8185 19.2159C11.8774 19.301 11.9014 19.4057 11.8853 19.5081L11.4091 22.5236L12.0001 23.6026L12.5987 22.5099L12.1243 19.5085Z" fill="black"/>
<path d="M16.0526 18.47C16.1235 18.3499 16.2512 18.2758 16.3901 18.2734L17.5538 18.2554L16.7395 16.6156L14.6079 20.5082L14.6078 20.5082L13.5093 22.5143L16.5092 19.7576L16.042 18.8615C15.9776 18.7379 15.9815 18.5896 16.0526 18.47Z" fill="black"/>
<path d="M14.6876 14.4227C14.5663 14.5325 14.4453 14.6288 14.3248 14.7187C14.2988 14.738 14.2731 14.7577 14.2473 14.7762C14.1289 14.8608 14.0117 14.9374 13.896 15.0048C13.8767 15.0161 13.8579 15.0259 13.8386 15.0367C13.7273 15.0995 13.6177 15.1556 13.5105 15.2043C13.4996 15.2092 13.4885 15.215 13.4776 15.2198C13.3621 15.271 13.2502 15.3137 13.1414 15.3507C13.124 15.3566 13.1071 15.3623 13.09 15.3677C12.867 15.4403 12.6611 15.4863 12.479 15.5136C12.4728 15.5146 12.4665 15.5156 12.4604 15.5165C12.3682 15.5298 12.2828 15.5389 12.2044 15.5444C12.2012 15.5446 12.1983 15.5448 12.1952 15.545C12.0411 15.5552 11.917 15.5535 11.8292 15.5482C11.8262 15.548 11.8239 15.5479 11.8209 15.5477C11.7812 15.5452 11.7467 15.5422 11.7239 15.5396C11.7217 15.5396 11.7196 15.5396 11.7174 15.5396C11.6107 15.5396 11.5001 15.5267 11.3876 15.5062C11.3494 15.4993 11.3105 15.4875 11.2719 15.4784C11.1964 15.4608 11.121 15.4422 11.0444 15.4174C10.9987 15.4026 10.9532 15.3852 10.9073 15.3682C10.8367 15.342 10.7664 15.3149 10.6958 15.2841C10.6478 15.2632 10.6006 15.2415 10.5528 15.2188C10.484 15.186 10.4162 15.1522 10.3484 15.1164C10.3016 15.0917 10.2556 15.0674 10.2095 15.0416C10.1405 15.003 10.0736 14.9635 10.0066 14.9229C9.96488 14.8977 9.92321 14.8733 9.88247 14.8476C9.80858 14.801 9.73813 14.7543 9.66813 14.7072C9.63828 14.6871 9.60711 14.6673 9.57809 14.6473C9.4829 14.5816 9.39179 14.5166 9.30701 14.4539V14.9365L9.37303 14.9808L11.9992 16.7428L14.6926 14.9361V14.4185C14.691 14.42 14.6893 14.4211 14.6876 14.4227Z" fill="black"/>
<path d="M16.3955 1.65487C16.2785 1.62664 16.1804 1.54696 16.1285 1.43787C16.0763 1.32918 16.0759 1.20247 16.1269 1.09339C16.1721 0.992949 16.2658 0.674393 16.1455 0.440944C16.0504 0.25652 15.826 0.125513 15.4783 0.052124H9.69364C7.78833 0.052124 6.23816 1.60892 6.23816 3.52275V5.81831C6.23816 6.11768 6.31235 6.41109 6.45066 6.66969V5.62378C6.45066 5.59434 6.45382 5.5649 6.46024 5.53628C6.89073 3.59853 8.59914 3.35448 8.67158 3.34467C8.6886 3.34272 8.70576 3.3415 8.72297 3.3415H10.6419C10.7777 3.3415 10.9101 3.32109 11.0351 3.2807C11.3787 3.16967 11.931 2.96332 12.334 2.80951C12.4508 2.76508 12.5708 2.73182 12.6924 2.70907C12.7444 2.69931 12.7973 2.69901 12.8497 2.6933C12.9204 2.68554 12.9907 2.6745 13.0617 2.67396C13.0666 2.67387 13.0715 2.6726 13.0763 2.6726C13.1575 2.6726 13.2383 2.68368 13.3191 2.6932C13.3526 2.69716 13.3864 2.69618 13.4197 2.70175C13.5381 2.72157 13.6553 2.75111 13.7697 2.79149L15.7895 3.50356C17.369 4.08618 17.5458 5.55982 17.5526 5.62217C17.5542 5.63667 17.5549 5.65118 17.5549 5.66573V6.96397C17.5729 6.93336 17.5914 6.90279 17.6102 6.87257C17.7222 6.69249 17.7811 6.48887 17.7811 6.28287V3.18852C17.7525 3.01908 17.5265 1.92835 16.3955 1.65487Z" fill="black"/>
<path d="M6.7237 20.1417C6.58976 20.0186 6.55515 19.8204 6.6393 19.6588L6.94792 19.0667L5.79849 19.0491C5.6612 19.0467 5.53446 18.9742 5.46294 18.856C5.39143 18.738 5.3854 18.5916 5.44675 18.4681L6.43896 16.4698L1.96352 18.0961C1.23126 18.3621 0.697265 19.0067 0.570329 19.778L0.0101276 23.1733C-0.025994 23.3926 0.0355052 23.6158 0.178679 23.7853C0.321659 23.9548 0.530853 24.0521 0.752153 24.0521H10.9802L6.7237 20.1417Z" fill="black"/>
<path d="M15.5191 4.25971L13.5047 3.54955C13.2172 3.44877 12.9023 3.45229 12.6182 3.56054C12.2064 3.71786 11.6398 3.92973 11.2799 4.04584C11.0756 4.11176 10.8609 4.14511 10.642 4.14511H8.75479C8.64847 4.1645 8.20475 4.26508 7.81368 4.64399C7.81164 4.64604 7.80974 4.64838 7.80765 4.65034C7.77071 4.68652 7.73415 4.72475 7.69846 4.76606C7.69141 4.77421 7.68485 4.78393 7.67785 4.79233C7.64751 4.82866 7.61742 4.86572 7.58859 4.90615C7.57901 4.91963 7.57046 4.9351 7.56107 4.94902C7.53574 4.98672 7.51022 5.02417 7.4865 5.06538C7.47463 5.08598 7.46428 5.10937 7.45295 5.13091C7.43316 5.16826 7.41279 5.20468 7.39461 5.24487C7.37837 5.28076 7.36447 5.32055 7.34959 5.35879C7.33826 5.38799 7.32567 5.41523 7.31522 5.44585C7.29106 5.5167 7.26942 5.59126 7.25061 5.66977V8.66681V9.37067C7.25115 9.38868 7.33807 12.13 9.08757 13.2928C9.08873 13.2936 9.12996 13.3222 9.13093 13.3226C9.2708 13.4176 9.40693 13.5177 9.53931 13.622C10.4401 14.3322 11.2669 14.7512 11.7358 14.7359C11.7581 14.7363 11.7829 14.737 11.8061 14.7406C11.8094 14.741 11.8169 14.7419 11.8281 14.7431L11.8284 14.7431C11.8323 14.7435 11.8392 14.744 11.8439 14.7445C12.0006 14.7585 12.6737 14.7869 13.4831 14.3175C13.4909 14.3129 13.4985 14.3094 13.5063 14.3048C13.5585 14.274 13.6117 14.2388 13.6649 14.2036C13.6833 14.1914 13.7012 14.1814 13.7197 14.1687C13.7528 14.146 13.7864 14.1194 13.8197 14.0949C13.9313 14.0132 14.0438 13.9244 14.1573 13.8213C14.3702 13.6287 14.6083 13.4404 14.8657 13.2618L14.9384 13.2112C15.5195 12.8193 16.5267 11.785 16.7548 9.2653V5.69287C16.7334 5.55517 16.5533 4.6414 15.5191 4.25971Z" fill="black"/>
<path d="M23.9899 23.1733L23.4301 19.778C23.3028 19.0067 22.7688 18.3621 22.0368 18.0961L17.5611 16.4698L18.5533 18.4681C18.6147 18.5916 18.6086 18.738 18.5371 18.856C18.4657 18.9741 18.3389 19.0467 18.2016 19.0491L17.0522 19.0667L17.3607 19.6588C17.4449 19.8204 17.4104 20.0186 17.2763 20.1417L13.0204 24.0521H23.2478C23.4691 24.0521 23.6783 23.9549 23.8213 23.7853C23.9645 23.6158 24.0261 23.3926 23.9899 23.1733Z" fill="black"/>
<path d="M8.85287 15.5974L7.81982 15.9697L9.7913 19.5693L10.6265 18.4269L10.6267 18.4265L11.024 17.8832L11.4301 17.3275L8.85287 15.5974Z" fill="black"/>
<path d="M7.49085 19.7576L10.4966 22.5247L9.39252 20.5083L9.39242 20.5082L7.26051 16.6156L6.44629 18.2554L7.60996 18.2734C7.74881 18.2757 7.87657 18.3499 7.9475 18.47C8.01858 18.5896 8.02247 18.7379 7.95805 18.8615L7.49085 19.7576Z" fill="black"/>
</svg>
