<svg width="50" height="50" viewBox="0 0 50 50" fill="none" xmlns="http://www.w3.org/2000/svg">
<path d="M49.2676 42.7344H47.9717V15.8305C47.9717 13.86 46.4033 12.2569 44.4756 12.2569H42.7552C42.9433 11.8545 43.047 11.4082 43.047 10.9444C43.047 9.81511 42.4408 8.78507 41.4649 8.25617L31.8878 3.06902C31.5304 2.87531 31.087 3.0147 30.8978 3.38025C30.7084 3.74569 30.8447 4.19891 31.2021 4.39252L40.7791 9.57957C41.2819 9.85205 41.5821 10.3623 41.5821 10.9444C41.5821 11.5265 41.2819 12.0366 40.7793 12.309L31.4695 17.3516L25.5508 10.4506C25.2841 10.1396 24.8213 10.1087 24.5172 10.3814C24.2131 10.654 24.1827 11.1272 24.4494 11.4382L30.1393 18.0722L26.6166 19.9802C25.6044 20.5277 24.3959 20.5277 23.384 19.9804L9.2209 12.3092C8.71816 12.0367 8.41787 11.5265 8.41787 10.9445C8.41787 10.3625 8.71807 9.85225 9.2207 9.57977L23.3835 1.90857C24.3957 1.361 25.6042 1.361 26.616 1.90837L28.6434 3.00671C29.0008 3.20042 29.4441 3.06113 29.6335 2.69568C29.8229 2.33024 29.6866 1.87692 29.3293 1.68332L27.3016 0.584778C25.8604 -0.194943 24.1395 -0.194943 22.6981 0.584877L8.53486 8.25637C7.55918 8.78517 6.95312 9.81521 6.95312 10.9445C6.95312 11.4083 7.05684 11.8545 7.24492 12.257H5.52441C3.59668 12.257 2.02832 13.8601 2.02832 15.8306V42.7345H0.732422C0.32793 42.7345 0 43.0698 0 43.4834V45.1432C0 47.8212 2.13086 50 4.7501 50H45.2498C47.869 50 50 47.8213 50 45.1432V43.4834C50 43.0697 49.6721 42.7344 49.2676 42.7344ZM31.3004 29.7425L32.2554 31.4337C32.4527 31.7833 32.3211 32.0919 32.2554 32.2083C32.1897 32.3247 31.994 32.5956 31.5992 32.5956H31.0015C30.6066 32.5956 30.4111 32.3247 30.3453 32.2083C30.2795 32.0918 30.1479 31.7833 30.3453 31.4337L31.3004 29.7425ZM32.0328 18.7415L35.0635 17.1V20.0738C35.0635 22.2096 33.883 24.1243 32.0328 25.0335V18.7415ZM24.9999 21.8888C25.7904 21.8888 26.5812 21.6938 27.3019 21.304L30.568 19.535V25.6129C26.5662 26.9683 22.1388 26.8161 18.2328 25.1562C16.2304 24.3053 14.9365 22.3103 14.9365 20.0739V17.0999L22.6985 21.3041C23.419 21.694 24.2094 21.8888 24.9999 21.8888ZM3.49316 15.8305C3.49316 14.6858 4.40439 13.7546 5.52441 13.7546H8.76045L12.4473 15.7516H6.17871C5.77422 15.7516 5.44629 16.0869 5.44629 16.5005V39.9889C5.44629 40.4025 5.77422 40.7378 6.17871 40.7378H10.0449C10.4494 40.7378 10.7773 40.4025 10.7773 39.9889C10.7773 39.5754 10.4494 39.2401 10.0449 39.2401H6.91113V17.2494H13.4717V20.0738C13.4717 22.9174 15.1198 25.4551 17.6707 26.5392C19.9996 27.5289 22.4998 28.0238 25.0001 28.0238C26.8804 28.0238 28.7605 27.7437 30.5681 27.1839V28.044L29.0769 30.6848C28.6751 31.3963 28.6751 32.2458 29.0769 32.9572C29.4786 33.6686 30.198 34.0934 31.0016 34.0934H31.5993C32.4028 34.0934 33.1223 33.6686 33.524 32.9572C33.9258 32.2458 33.9258 31.3963 33.524 30.6848L32.0328 28.044V26.6607C32.1318 26.6207 32.231 26.581 32.3294 26.5392C34.8802 25.4551 36.5283 22.9174 36.5283 20.0738V17.2494H43.0889V39.2401H12.9746C12.5701 39.2401 12.2422 39.5754 12.2422 39.9889C12.2422 40.4025 12.5701 40.7378 12.9746 40.7378H43.8213C44.2258 40.7378 44.5537 40.4025 44.5537 39.9889V16.5005C44.5537 16.0869 44.2258 15.7516 43.8213 15.7516H37.5526L41.2395 13.7546H44.4755C45.5955 13.7546 46.5067 14.6858 46.5067 15.8305V42.7344H3.49316V15.8305ZM29.5293 44.2325C29.2587 45.0378 28.5104 45.6182 27.6321 45.6182H22.368C21.4896 45.6182 20.7414 45.0378 20.4707 44.2325H29.5293ZM48.5352 45.143C48.5352 46.9952 47.0613 48.5022 45.2498 48.5022H4.7501C2.93857 48.5022 1.46484 46.9952 1.46484 45.143V44.2321H2.75322C2.75576 44.2321 2.7582 44.2325 2.76074 44.2325H18.9597C19.2649 45.8722 20.6767 47.116 22.368 47.116H27.6321C29.3233 47.116 30.7351 45.8721 31.0403 44.2325H47.2393C47.2418 44.2325 47.2442 44.2321 47.2468 44.2321H48.5352V45.143Z" fill="black"/>
<path d="M25.2214 36.494C25.2214 36.0804 24.8935 35.7451 24.489 35.7451H9.82642C9.42192 35.7451 9.09399 36.0804 9.09399 36.494C9.09399 36.9076 9.42192 37.2429 9.82642 37.2429H24.4891C24.8935 37.2429 25.2214 36.9076 25.2214 36.494Z" fill="black"/>
<path d="M9.82642 34.0933H19.6301C20.0346 34.0933 20.3626 33.758 20.3626 33.3444C20.3626 32.9309 20.0346 32.5956 19.6301 32.5956H9.82642C9.42192 32.5956 9.09399 32.9309 9.09399 33.3444C9.09399 33.758 9.42183 34.0933 9.82642 34.0933Z" fill="black"/>
</svg>
