<svg width="24" height="24" viewBox="0 0 24 24" fill="none" xmlns="http://www.w3.org/2000/svg">
<path d="M24 19.0813L20.8179 18.6523L19.414 16.019L18.0103 18.6523L15.707 18.9628L13.404 18.6523L12.0001 16.019L10.5962 18.6523L8.29297 18.9628L5.98991 18.6523L4.58603 16.019L3.18215 18.6523L0 19.0813L2.30383 21.1605L1.76436 24.0001L4.58603 22.6985L7.4075 23.9993L6.86804 21.1605L8.29297 19.8747L9.71789 21.1605L9.17843 24.0001L11.9999 22.6985L14.8216 23.9993L14.2821 21.1605L15.707 19.8747L17.132 21.1605L16.5925 24.0001L19.414 22.6985L22.2356 23.9993L21.6962 21.1605L24 19.0813Z" fill="black"/>
<path d="M17.1898 11.9527C17.1898 9.23907 14.8613 7.03101 11.9998 7.03101C9.1386 7.03101 6.81006 9.23907 6.81006 11.9527V15.4683H17.1898V11.9527Z" fill="black"/>
<path d="M15.7069 3.51544C15.7069 1.57709 14.0437 0 11.9998 0C9.95584 0 8.29285 1.57709 8.29285 3.51544C8.29285 5.45379 9.95584 7.03106 11.9998 7.03106C14.0437 7.03106 15.7069 5.45379 15.7069 3.51544Z" fill="black"/>
</svg>
