<svg width="40" height="40" viewBox="0 0 40 40" fill="none" xmlns="http://www.w3.org/2000/svg">
<path d="M20 38C29.9411 38 38 29.9411 38 20C38 10.0589 29.9411 2 20 2C10.0589 2 2 10.0589 2 20C2 29.9411 10.0589 38 20 38Z" fill="#EF5261"/>
<path d="M18.265 21.7156C20.7372 24.1878 23.1601 25.1908 24.0328 24.318L25.2312 23.1199C25.6277 22.7235 26.1653 22.5008 26.7259 22.5008C27.2866 22.5008 27.8242 22.7235 28.2206 23.1199L30.9111 25.8104C31.3075 26.2068 31.5302 26.7444 31.5302 27.3051C31.5302 27.8657 31.3075 28.4033 30.9111 28.7998L28.8149 30.8959C26.8344 32.8765 20.9765 30.2327 15.3622 24.6187C12.5564 21.8115 10.7162 19.1675 9.52681 16.6813C8.33741 14.195 8.09638 12.1557 9.0861 11.1659L11.1823 9.06979C11.5787 8.67338 12.1163 8.45068 12.677 8.45068C13.2376 8.45068 13.7752 8.67338 14.1717 9.06979L16.8621 11.7594C17.2585 12.1558 17.4812 12.6935 17.4812 13.2541C17.4812 13.8147 17.2585 14.3524 16.8621 14.7488L15.6628 15.95C14.7901 16.8219 15.7928 19.2446 18.265 21.7156V21.7156Z" fill="#EEEFEE"/>
</svg>
