<svg width="25" height="25" viewBox="0 0 25 25" fill="none" xmlns="http://www.w3.org/2000/svg">
<path fill-rule="evenodd" clip-rule="evenodd" d="M20.0777 8.4609C20.7274 7.58415 21.3147 6.6726 21.8361 5.73155C21.8361 5.73155 17.2787 3.91475 15.3542 3.00497C14.5832 5.38589 13.1601 6.9234 11.7403 8.34476L9.08544 8.41112C10.9661 6.50584 13.1069 4.53971 14.4735 0.259033C14.4735 0.259033 21.6825 3.69076 24.2277 4.94344C23.9612 6.3648 22.8454 8.23968 21.6919 9.58637L20.0777 8.4609ZM8.91932 2.89712C8.99454 5.05682 8.35513 6.81002 7.5966 8.44431L5.44641 8.49685C6.75784 6.11159 7.36895 3.47387 7.22361 0.825918L12.2731 1.37898L11.477 3.03815C11.477 3.03815 9.1544 2.93307 8.91932 2.89712ZM2.87935 5.25039C3.18225 6.32644 3.28807 7.43831 3.19279 8.54386L1.24947 8.59916C1.37602 6.86019 1.18124 5.11464 0.672744 3.43083L5.53104 3.07687L5.29283 4.92132C5.29283 4.92132 3.1301 5.25039 2.87935 5.25039ZM20.8018 12.3102C20.8018 12.4678 20.8018 12.6807 20.8018 12.9379C19.0779 12.9877 16.6832 13.0485 14.2729 13.0762C12.7809 13.0955 11.5365 14.3261 11.5365 15.6175C11.5365 16.0046 11.5365 17.2324 11.5365 17.4841C11.5365 19.3617 12.8248 20.689 14.9593 20.689C16.8399 20.689 18.9838 20.7056 20.6451 20.725C20.6451 21.4218 20.6231 21.95 20.6231 22.1851C20.6231 23.2608 19.8395 24.0627 18.5983 24.0765C14.8088 24.1208 0.443933 24.259 0.443933 24.259L0.227661 10.0565C0.227661 10.0565 15.1756 9.82142 18.3068 9.82142C20.084 9.82972 20.8018 10.7533 20.8018 12.3185V12.3102ZM13.2792 17.1743C13.2792 16.9974 13.2792 16.4139 13.2792 16.1401C13.2792 15.2248 13.9437 14.5418 15.0032 14.5307C18.2253 14.492 21.8299 14.5473 21.8299 14.5473L21.9302 19.0879C21.9302 19.0879 18.0686 19.2926 15.4075 19.2926C13.8873 19.3009 13.2792 18.5238 13.2792 17.1826V17.1743Z" fill="black"/>
</svg>
