<svg width="25" height="25" viewBox="0 0 25 25" fill="none" xmlns="http://www.w3.org/2000/svg">
<path fill-rule="evenodd" clip-rule="evenodd" d="M21.7732 24.2274C20.4507 24.2274 4.54338 23.9402 2.84826 23.9047C0.917084 23.8596 0.0894369 22.6141 0.248709 20.62C0.299904 19.9747 0.493307 17.3127 0.703774 14.3957L10.3739 14.2925L10.5986 15.9575L14.3472 15.5509L14.3784 14.2602L23.8978 14.157C24.0486 17.2643 24.1822 20.2392 24.2249 21.0588C24.3017 23.1981 23.4143 24.2274 21.7732 24.2274ZM14.4353 11.4724L10.0383 11.8822L10.1464 12.6888L0.803319 13.0115C1.07351 9.23629 1.33802 5.4998 1.33802 5.4998L23.4712 5.82247C23.4712 5.82247 23.6248 8.84909 23.7897 12.2081L14.404 12.5307L14.4353 11.4724ZM16.6822 3.35729L7.9592 3.02817L7.59799 4.23494L5.60709 4.18654C5.60709 4.18654 5.79196 3.1282 5.95976 2.41187C6.28115 1.01795 6.72768 0.227417 8.18673 0.227417C8.8807 0.227417 14.879 0.550084 15.7465 0.550084C17.3165 0.550084 18.3915 1.24059 18.5906 2.42155C18.6987 3.04753 18.9461 4.52212 18.9461 4.52212L17.0377 4.47695L16.6822 3.35729Z" fill="black"/>
</svg>
