<svg width="25" height="25" viewBox="0 0 25 25" fill="none" xmlns="http://www.w3.org/2000/svg">
<path fill-rule="evenodd" clip-rule="evenodd" d="M17.3749 16.0294C15.7038 16.0294 15.0275 14.7217 15.0275 12.5091C15.0275 12.2141 15.0275 11.2453 15.0275 10.7868C15.0275 9.26791 15.7609 8.13568 16.9301 8.11176C20.4917 8.04797 24.4802 8.14365 24.4802 8.14365L24.5914 15.6905C24.5914 15.6905 20.3204 16.0294 17.3749 16.0294ZM16.2418 5.90711C14.6488 5.93502 13.3203 7.90046 13.3203 9.9895C13.3203 10.6114 13.3203 12.5809 13.3203 12.9835C13.3203 16.0015 14.6969 18.1304 16.9752 18.1304C19.04 18.1304 21.3784 18.1623 23.1698 18.1942C23.1517 19.4579 23.1397 20.4227 23.1397 20.8373C23.1397 22.6234 22.2771 23.955 20.9035 23.9829C16.7137 24.0586 0.834888 24.2819 0.834888 24.2819L0.591431 0.680531C0.591431 0.680531 17.1224 0.28186 20.5819 0.28186C22.5476 0.28186 23.3411 1.81675 23.3411 4.42007C23.3411 4.71907 23.3411 5.15362 23.3411 5.67588C21.4896 5.76359 18.8717 5.85927 16.2418 5.90711Z" fill="black"/>
</svg>
