<svg width="20" height="20" viewBox="0 0 20 20" fill="none" xmlns="http://www.w3.org/2000/svg">
<path d="M0 9.58332C0 5.0657 0 2.80688 1.40344 1.40344C2.80688 0 5.0657 0 9.58332 0H10.4166C14.9343 0 17.1931 0 18.5965 1.40344C20 2.80688 20 5.0657 20 9.58332V10.4166C20 14.9343 20 17.1931 18.5965 18.5965C17.1931 20 14.9343 20 10.4167 20H9.58336C5.06574 20 2.80691 20 1.40348 18.5966C0 17.1931 0 14.9343 0 10.4167L0 9.58332Z" fill="#2787F5"/>
<path fill-rule="evenodd" clip-rule="evenodd" d="M5.41704 6.25H3.95837C3.54161 6.25 3.45825 6.44617 3.45825 6.66242C3.45825 7.04871 3.95278 8.96449 5.76083 11.4983C6.96622 13.2287 8.66446 14.1666 10.2098 14.1666C11.137 14.1666 11.2517 13.9583 11.2517 13.5995V12.2916C11.2517 11.875 11.3396 11.7918 11.6331 11.7918C11.8495 11.7918 12.2204 11.9 13.0858 12.7343C14.0748 13.723 14.2379 14.1666 14.7941 14.1666H16.2528C16.6696 14.1666 16.878 13.9583 16.7578 13.5472C16.6262 13.1374 16.154 12.5429 15.5274 11.8382C15.1874 11.4365 14.6775 11.0039 14.5229 10.7876C14.3066 10.5095 14.3684 10.3859 14.5229 10.1387C14.5229 10.1387 16.3001 7.63578 16.4856 6.78609C16.5782 6.47707 16.4856 6.25 16.0444 6.25H14.5857C14.2149 6.25 14.0439 6.44617 13.9511 6.66242C13.9511 6.66242 13.2094 8.47008 12.1586 9.6443C11.8186 9.98418 11.664 10.0923 11.4786 10.0923C11.3859 10.0923 11.2516 9.98418 11.2516 9.67523V6.78609C11.2516 6.41527 11.144 6.25 10.8349 6.25H8.5427C8.31094 6.25 8.17153 6.42207 8.17153 6.5852C8.17153 6.93668 8.69696 7.01777 8.7511 8.00656V10.1541C8.7511 10.625 8.66602 10.7104 8.48059 10.7104C7.9861 10.7104 6.78321 8.89461 6.06981 6.81691C5.93009 6.41313 5.78985 6.25 5.41704 6.25V6.25Z" fill="white"/>
</svg>
