<svg width="30" height="30" viewBox="0 0 30 30" fill="none" xmlns="http://www.w3.org/2000/svg">
<path d="M25.6066 4.39339C22.7735 1.56029 19.0066 0 15 0C10.9934 0 7.22649 1.56029 4.39339 4.39339C1.56029 7.22649 0 10.9934 0 15C0 19.0066 1.56029 22.7735 4.39339 25.6066C7.22649 28.4397 10.9934 30 15 30C19.0066 30 22.7735 28.4397 25.6066 25.6066C28.4397 22.7735 30 19.0066 30 15C30 10.9934 28.4397 7.22649 25.6066 4.39339ZM15 28.2422C7.69822 28.2422 1.75781 22.3018 1.75781 15C1.75781 7.69821 7.69822 1.75781 15 1.75781C22.3018 1.75781 28.2422 7.69821 28.2422 15C28.2422 22.3018 22.3018 28.2422 15 28.2422Z" fill="black" fill-opacity="0.75"/>
<path d="M14.1211 3.26733H15.8789V5.02515H14.1211V3.26733Z" fill="black" fill-opacity="0.75"/>
<path d="M14.1211 24.9751H15.8789V26.7328H14.1211V24.9751Z" fill="black" fill-opacity="0.75"/>
<path d="M3.26709 14.1211H5.0249V15.8789H3.26709V14.1211Z" fill="black" fill-opacity="0.75"/>
<path d="M24.9751 14.1211H26.7329V15.8789H24.9751V14.1211Z" fill="black" fill-opacity="0.75"/>
<path d="M6.08191 22.6752L7.32497 21.4321L8.56781 22.6752L7.32497 23.918L6.08191 22.6752Z" fill="black" fill-opacity="0.75"/>
<path d="M21.4319 7.32539L22.6747 6.08252L23.9178 7.32539L22.6747 8.56848L21.4319 7.32539Z" fill="black" fill-opacity="0.75"/>
<path d="M6.08203 7.32507L7.32487 6.08203L8.56793 7.32507L7.32487 8.56787L6.08203 7.32507Z" fill="black" fill-opacity="0.75"/>
<path d="M21.4315 22.6751L22.6746 21.4321L23.9174 22.6751L22.6746 23.9183L21.4315 22.6751Z" fill="black" fill-opacity="0.75"/>
<rect x="14" y="7" width="2" height="9" rx="1" fill="black" fill-opacity="0.75"/>
<rect x="14.6968" y="13.5459" width="2" height="6" rx="1" transform="rotate(45 14.6968 13.5459)" fill="black" fill-opacity="0.75"/>
</svg>
