<svg width="100" height="100" viewBox="0 0 100 100" fill="none" xmlns="http://www.w3.org/2000/svg">
<path d="M0 100C2.3186e-06 73.4783 10.5357 48.043 29.2893 29.2893C48.043 10.5357 73.4784 -3.16267e-07 100 0V100H0Z" fill="#F6A9A9" fill-opacity="0.9"/>
<path d="M55.1383 55.1383C48.8493 61.4273 46.299 70.3823 48.3161 79.0906C48.8053 81.2001 50.9109 82.5165 53.0208 82.0311C55.1274 81.5445 56.4434 79.4407 55.9541 77.329C54.5509 71.2735 56.3211 65.0515 60.6863 60.6864C65.0515 56.3212 71.2724 54.552 77.3289 55.9542C78.6975 56.2722 80.0634 55.8318 80.9865 54.9086C81.4885 54.4066 81.8585 53.7637 82.0299 53.022C82.5165 50.9131 81.2 48.8076 79.0894 48.3172C70.3822 46.299 61.4284 48.8482 55.1383 55.1383Z" fill="white"/>
<path d="M83.1191 30.928C68.3708 27.5077 53.1927 31.8405 42.5164 42.5168C31.8401 53.1932 27.5084 68.3702 30.9277 83.1197C31.4169 85.2291 33.5225 86.5456 35.6314 86.059C37.7402 85.5703 39.055 83.4675 38.5657 81.3581C35.7614 69.2626 39.313 56.8163 48.0644 48.0649C56.8158 39.3134 69.262 35.7618 81.3574 38.5662C82.7249 38.8831 84.0908 38.4426 85.014 37.5195C85.5149 37.0186 85.8869 36.3756 86.0572 35.6328C86.5438 33.5217 85.2285 31.4173 83.1191 30.928Z" fill="white"/>
<path d="M77.8719 77.8723C80.3899 75.3544 80.3872 71.2693 77.8661 68.7481C75.345 66.2269 71.26 66.2243 68.7421 68.7423C66.2242 71.2603 66.2268 75.3453 68.7479 77.8665C71.269 80.3877 75.354 80.3903 77.8719 77.8723Z" fill="white"/>
</svg>
